{"title":"King Arthur (2004) EXTENDED BRRip XviD + Extras - DiGrX","uid":9132994,"size":2921345026,"categoryP":"video","categoryS":"movies","magnet":"?xt=urn:btih:450c19dcf902139dc9b631c82c2df36a2adbe644&amp;dn=King+Arthur+%282004%29+EXTENDED+BRRip+XviD+%2B+Extras+-+DiGrX&amp;tr=udp%3A%2F%2Ftracker.openbittorrent.com%3A80&amp;tr=udp%3A%2F%2Fopen.demonii.com%3A1337&amp;tr=udp%3A%2F%2Ftracker.coppersurfer.tk%3A6969&amp;tr=udp%3A%2F%2Fexodus.desync.com%3A6969","seeders":1,"leechers":0,"uploader":"dimigeor","files":8,"time":1383359308,"description":"A DiGrX rekease\n\n\n-King Arthur (2004) EXTENDED WS BRRip XviD - DiGrX.avi\n\nExtended Unrated Director's Cut - WideScreen\n\n\n+King Arthur - Cast and Film Maker Round Table Comentary\n+King Arthur - Commentary Blood On The Land\n+King Arthur Alternate Ending-Badon Hill\n+Covers jpg\n\n\n\nMain movie file info:\n\nGeneral\nFormat                                   : AVI\nFormat/Info                              : Audio Video Interleave\nFormat profile                           : OpenDML\nFile size                                : 2.11 GiB\nDuration                                 : 2h 21mn\nOverall bit rate mode                    : Variable\nOverall bit rate                         : 2 131 Kbps\nWriting application                      : MEncoder r33883\nWriting library                          : MPlayer\n\nVideo\nID                                       : 0\nFormat                                   : MPEG-4 Visual\nFormat profile                           : Simple@L3\nFormat settings, BVOP                    : No\nFormat settings, QPel                    : No\nFormat settings, GMC                     : No warppoints\nFormat settings, Matrix                  : Default (H.263)\nCodec ID                                 : XVID\nCodec ID/Hint                            : XviD\nDuration                                 : 2h 21mn\nBit rate                                 : 1 998 Kbps\nWidth                                    : 1 120 pixels\nHeight                                   : 480 pixels\nDisplay aspect ratio                     : 2.35:1\nFrame rate                               : 23.976 fps\nColor space                              : YUV\nChroma subsampling                       : 4:2:0\nBit depth                                : 8 bits\nScan type                                : Progressive\nCompression mode                         : Lossy\nBits/(Pixel*Frame)                       : 0.155\nStream size                              : 1.98 GiB (94%)\nWriting library                          : XviD 63\n\nAudio\nID                                       : 1\nFormat                                   : MPEG Audio\nFormat version                           : Version 1\nFormat profile                           : Layer 3\nMode                                     : Joint stereo\nMode extension                           : MS Stereo\nCodec ID                                 : 55\nCodec ID/Hint                            : MP3\nDuration                                 : 2h 21mn\nBit rate mode                            : Variable\nBit rate                                 : 121 Kbps\nChannel(s)                               : 2 channels\nSampling rate                            : 48.0 KHz\nCompression mode                         : Lossy\nStream size                              : 123 MiB (6%)\nAlignment                                : Aligned on interleaves\nInterleave, duration                     : 24 ms (0.58 video frame)\nInterleave, preload duration             : 505 ms\n\n\n--------------------------------------------------------------------------------\n\n\n\nThe Untold True Story That Inspired The Legend.\n\nExperience the extended unrated director's cut of this hard-hitting action epic! \nPrepare for more thrills, more adventure and more intensity, as the heroic true \nstory behind one of history's greatest legends explodes onto the screen! \nIt is the valiant tale of Arthur (Clive Owen) and his bond of brotherhood with \nLancelot (Ioan Grufford), and the loyalty of the Knights Of the Round Table as \nthey fight for freedom and those they love. Also starring Keira Knightley, this \nnever-before-seen King Arthur is a longer, grittier and more explicit motion \npicture - don't miss it! \n\n\nCast &amp; Crew\nActors:\n - Keira Knightley\n - Stellan Skarsgard\n - Ray Winstone\n - Clive Owen\n - Stephen Dillane\n - Til Schweiger\n - Hugh Dancy\n\t\n\nWriters:\n - David Franzoni\n\nProducers:\n - Jerry Bruckheimer\n\nDirectors:\n - Antoine Fuqua\n\n--------------------------------------------------------------------------------","torrent":{"xt":"urn:btih:450c19dcf902139dc9b631c82c2df36a2adbe644","amp;dn":"King+Arthur+%282004%29+EXTENDED+BRRip+XviD+%2B+Extras+-+DiGrX","amp;tr":["udp%3A%2F%2Ftracker.openbittorrent.com%3A80","udp%3A%2F%2Fopen.demonii.com%3A1337","udp%3A%2F%2Ftracker.coppersurfer.tk%3A6969","udp%3A%2F%2Fexodus.desync.com%3A6969"],"infoHash":"450c19dcf902139dc9b631c82c2df36a2adbe644","infoHashBuffer":{"type":"Buffer","data":[69,12,25,220,249,2,19,157,201,182,49,200,44,45,243,106,42,219,230,68]},"announce":[],"urlList":[]}}